<?xml version="1.0" encoding="utf-8"?>
<!-- Generator: Adobe Illustrator 16.0.3, SVG Export Plug-In . SVG Version: 6.00 Build 0)  -->
<!DOCTYPE svg PUBLIC "-//W3C//DTD SVG 1.1//EN" "http://www.w3.org/Graphics/SVG/1.1/DTD/svg11.dtd">
<svg version="1.1" id="Layer_1" xmlns="http://www.w3.org/2000/svg" xmlns:xlink="http://www.w3.org/1999/xlink" x="0px" y="0px"
	 width="305.149px" height="218.797px" viewBox="0 0 305.149 218.797" enable-background="new 0 0 305.149 218.797"
	 xml:space="preserve">
<path fill="#FFFFFF" d="M81.415,202.997c3.209,3.627,7.001,6.594,11.267,8.82c4.363,2.277,9.045,3.434,13.922,3.434
	c4.803,0,9.45-1.156,13.813-3.434c4.263-2.225,8.054-5.191,11.269-8.82c3.191-3.605,5.778-7.807,7.685-12.482
	c1.928-4.719,2.903-9.646,2.903-14.643c0-4.709-0.957-9.455-2.848-14.111c-1.871-4.6-4.435-8.793-7.617-12.465
	c-3.207-3.693-6.991-6.732-11.253-9.035c-4.374-2.359-9.07-3.559-13.952-3.559s-9.591,1.197-13.999,3.557
	c-4.3,2.303-8.107,5.342-11.314,9.037c-3.186,3.672-5.749,7.865-7.615,12.465c-1.891,4.65-2.851,9.4-2.851,14.111
	c0,4.996,0.979,9.924,2.903,14.641C75.64,195.194,78.225,199.396,81.415,202.997z M106.55,181.583c-3.12,0-5.657-2.537-5.657-5.654
	c0-3.119,2.537-5.656,5.657-5.656c3.118,0,5.655,2.537,5.655,5.656C112.205,179.046,109.668,181.583,106.55,181.583z M87.1,167.224
	c1.165-2.969,2.747-5.68,4.704-8.055c1.931-2.338,4.22-4.262,6.807-5.715c2.505-1.404,5.087-2.088,7.887-2.088
	c2.795,0,5.388,0.701,7.927,2.137c2.641,1.496,4.978,3.43,6.948,5.748c1.985,2.342,3.578,5.023,4.732,7.973
	c1.141,2.916,1.718,5.828,1.718,8.648c0,3.303-0.609,6.488-1.813,9.467c-1.221,3.018-2.872,5.709-4.914,8.006
	c-2.025,2.279-4.36,4.104-6.939,5.424c-1.349,0.691-2.722,1.191-4.105,1.51v-12.199c5.279-1.523,9.155-6.389,9.155-12.15
	c0-6.979-5.678-12.656-12.655-12.656c-6.979,0-12.657,5.678-12.657,12.656c0,5.762,3.877,10.627,9.157,12.15v12.232
	c-1.435-0.32-2.837-0.838-4.229-1.578c-2.555-1.355-4.86-3.197-6.854-5.479c-2.01-2.295-3.63-4.986-4.812-7.998
	c-1.176-2.984-1.771-6.141-1.771-9.385C85.382,173.052,85.959,170.14,87.1,167.224z"/>
<path fill="#FFFFFF" d="M189.133,137.339c-5.211,0-10.271,1.018-15.041,3.023c-4.748,1.996-8.953,4.77-12.5,8.242
	c-3.551,3.473-6.416,7.6-8.525,12.268c-2.127,4.713-3.207,9.832-3.207,15.211c0,5.432,1.034,10.605,3.08,15.377
	c2.035,4.748,4.852,8.939,8.365,12.451c3.514,3.516,7.703,6.332,12.451,8.365c4.77,2.045,9.945,3.082,15.377,3.082
	c2.371,0,5.107-0.324,8.133-0.961c3.012-0.629,5.9-1.518,8.592-2.639c2.793-1.162,5.193-2.596,7.137-4.26
	c2.354-2.02,3.547-4.354,3.547-6.943c0-4.621-2.799-7.385-7.49-7.385c-1.143,0-2.496,0.467-4.385,1.504l-0.301,0.191
	c-5.076,3.727-10.201,5.617-15.232,5.617c-3.406,0-6.613-0.666-9.527-1.982c-2.959-1.338-5.547-3.135-7.695-5.35
	c-2.15-2.213-3.85-4.811-5.053-7.725c-1.197-2.898-1.807-6.008-1.807-9.238c0-3.217,0.621-6.318,1.85-9.213
	c1.232-2.904,2.957-5.461,5.125-7.6c2.188-2.154,4.779-3.891,7.705-5.164c2.889-1.254,6.053-1.893,9.402-1.893
	c4.523,0,9.688,1.883,15.279,5.543c0.92,0.646,1.723,1.086,2.447,1.344c0.799,0.285,1.514,0.426,2.191,0.426
	c1.986,0,3.805-0.771,5.262-2.229s2.229-3.316,2.229-5.369c0-2.438-1.15-4.678-3.424-6.66c-1.861-1.623-4.199-3.055-6.951-4.258
	c-2.658-1.162-5.533-2.09-8.551-2.76C194.577,137.681,191.723,137.339,189.133,137.339z"/>
<path fill="#FFFFFF" d="M15.493,103.004v34.335h-5.089c-4.69,0-7.49,2.762-7.49,7.387c0,4.754,2.8,7.594,7.49,7.594h16.561v55.654
	c0,4.822,2.8,7.701,7.49,7.701c4.757,0,7.597-2.879,7.597-7.701v-55.654h16.453c4.69,0,7.491-2.84,7.491-7.594
	c0-4.625-2.801-7.387-7.491-7.387h-6.788V89.942c0-11.1-4.637-16.314-8.728-20.914c-3.651-4.107-6.536-7.352-6.536-14.764V28.254
	c5.342-1.526,9.266-6.44,9.266-12.265c0-7.037-5.727-12.762-12.766-12.762c-7.037,0-12.763,5.725-12.763,12.762
	c0,5.824,3.924,10.738,9.263,12.265v26.011c0,10.074,4.412,15.037,8.305,19.414c3.734,4.199,6.959,7.826,6.959,16.264v47.396H22.493
	v-34.335c5.279-1.523,9.155-6.389,9.155-12.151c0-6.979-5.678-12.656-12.655-12.656c-6.979,0-12.657,5.678-12.657,12.656
	C6.336,96.615,10.213,101.481,15.493,103.004z M27.19,15.989c0-3.178,2.585-5.762,5.763-5.762c3.18,0,5.766,2.584,5.766,5.762
	c0,3.179-2.586,5.764-5.766,5.764C29.775,21.753,27.19,19.168,27.19,15.989z M18.993,85.196c3.118,0,5.655,2.537,5.655,5.656
	c0,3.117-2.537,5.654-5.655,5.654c-3.12,0-5.657-2.537-5.657-5.654C13.336,87.733,15.873,85.196,18.993,85.196z"/>
<g>
	<circle fill="#FFFFFF" cx="136.201" cy="22.067" r="4.901"/>
	<path fill="#FFFFFF" d="M229.1,15.991v34.848h25.592C254.692,42.413,245.26,27.177,229.1,15.991z"/>
	<path fill="#FFFFFF" d="M123.231,119.634c14.334,0,79.332,0,79.332,0c0-23.5-18.832-48-44.5-48
		c0,13.348-10.82,24.168-24.166,24.168c-13.348,0-24.168-10.82-24.168-24.168V31.468c0,0-3.527-23.447,24.986-23.447h15.611v14.047
		c0,7.801-6.324,14.125-14.125,14.125l-0.795,0.518c-7.779,1.916-13.549,8.939-13.549,17.311c0,9.848,7.982,17.83,17.83,17.83
		c9.846,0,17.83-7.982,17.83-17.83c0-1.09-0.098-2.156-0.285-3.191l0.678,0.01h60.469V9.745c-9.463-4.568-20.482-7.559-32.742-7.559
		h-35.165h-0.146c-0.767,0-5.199,0-26.43,0c-30.168,0-30.5,30.447-30.5,30.447v54.834C93.397,106.3,108.897,119.634,123.231,119.634
		z"/>
</g>
<path fill="#FFFFFF" d="M236.17,105.75c0,5.763,3.877,10.628,9.154,12.151v23.352c-3.588,2.16-6.801,4.855-9.566,8.043
	c-3.186,3.672-5.748,7.865-7.617,12.465c-1.891,4.65-2.848,9.4-2.848,14.111c0,4.996,0.975,9.924,2.902,14.641
	c1.91,4.682,4.496,8.883,7.686,12.484c3.211,3.627,7,6.594,11.268,8.82c4.361,2.277,9.047,3.434,13.92,3.434
	c4.805,0,9.453-1.156,13.814-3.434c4.264-2.225,8.053-5.191,11.268-8.82c3.193-3.605,5.779-7.807,7.688-12.482
	c1.926-4.719,2.904-9.646,2.904-14.643c0-4.709-0.961-9.455-2.852-14.111c-1.869-4.6-4.432-8.793-7.617-12.465
	c-2.414-2.781-5.156-5.191-8.184-7.195v-19.369c0-8.438,3.225-12.064,6.959-16.264c3.895-4.379,8.307-9.341,8.305-19.416v-11.59
	c5.34-1.527,9.264-6.441,9.264-12.264c0-7.037-5.725-12.762-12.762-12.764c-3.41,0.001-6.617,1.328-9.027,3.738
	c-2.412,2.41-3.738,5.616-3.738,9.023c0,3.41,1.326,6.616,3.738,9.027c1.561,1.561,3.459,2.66,5.525,3.246v11.583
	c0.002,7.413-2.883,10.656-6.535,14.763c-4.092,4.602-8.729,9.815-8.729,20.916v15.766c-3.217-1.184-6.568-1.795-10.021-1.795
	c-2.988,0-5.912,0.453-8.744,1.344v-20.145c5.279-1.523,9.156-6.389,9.156-12.151c0-6.979-5.678-12.657-12.656-12.657
	C241.848,93.093,236.17,98.771,236.17,105.75z M284.09,63.196c0-1.539,0.6-2.984,1.688-4.072c1.088-1.089,2.537-1.688,4.078-1.689
	c3.178,0.001,5.762,2.586,5.762,5.764s-2.586,5.764-5.764,5.764c-1.539,0-2.988-0.6-4.076-1.688
	C284.69,66.186,284.09,64.738,284.09,63.196z M260.963,151.366c2.795,0,5.389,0.701,7.928,2.137c2.639,1.496,4.979,3.43,6.949,5.748
	c1.982,2.342,3.576,5.023,4.73,7.973c1.141,2.916,1.721,5.828,1.721,8.648c0,3.303-0.613,6.488-1.816,9.467
	c-1.219,3.018-2.873,5.709-4.912,8.006c-2.029,2.279-4.363,4.104-6.939,5.424c-2.496,1.279-5.074,1.926-7.66,1.926
	c-2.682,0-5.193-0.641-7.678-1.961c-2.553-1.355-4.857-3.197-6.854-5.479c-2.008-2.295-3.627-4.986-4.812-7.998
	c-1.176-2.984-1.771-6.141-1.771-9.385c0-2.82,0.58-5.732,1.721-8.648c1.162-2.969,2.744-5.68,4.703-8.055
	c1.928-2.338,4.217-4.262,6.807-5.715C255.584,152.05,258.163,151.366,260.963,151.366z M254.481,105.75
	c0,3.118-2.537,5.655-5.656,5.655c-3.117,0-5.654-2.537-5.654-5.655c0-3.12,2.537-5.657,5.654-5.657
	C251.944,100.093,254.481,102.63,254.481,105.75z"/>
</svg>
